<?xml version="1.0" standalone="no"?>
<!DOCTYPE svg PUBLIC "-//W3C//DTD SVG 20010904//EN"
 "http://www.w3.org/TR/2001/REC-SVG-20010904/DTD/svg10.dtd">
<svg version="1.0" xmlns="http://www.w3.org/2000/svg"
 width="1025.000000pt" height="1025.000000pt" viewBox="0 0 1025.000000 1025.000000"
 preserveAspectRatio="xMidYMid meet">
<metadata>
Created by potrace 1.11, written by Peter Selinger 2001-2013
</metadata>
<g transform="translate(0.000000,1025.000000) scale(0.100000,-0.100000)"
fill="#000000" stroke="none">
<path d="M4780 10239 c-171 -15 -259 -25 -315 -34 -16 -2 -57 -7 -90 -11 -33
-3 -62 -9 -65 -12 -3 -4 -25 -8 -50 -9 -58 -2 -333 -62 -498 -108 -434 -122
-896 -319 -1267 -542 -11 -7 -35 -20 -52 -29 -18 -10 -33 -21 -33 -26 0 -4 -5
-8 -11 -8 -23 0 -388 -259 -518 -367 -365 -303 -665 -624 -935 -1003 -86 -119
-216 -322 -257 -400 -13 -25 -29 -52 -35 -60 -18 -22 -176 -340 -224 -449 -82
-187 -162 -410 -234 -651 -28 -92 -100 -400 -109 -465 -4 -22 -11 -63 -16 -91
-14 -71 -48 -358 -58 -479 -10 -127 -10 -610 0 -735 11 -129 37 -354 51 -430
3 -14 7 -41 10 -60 3 -19 14 -80 25 -135 96 -475 235 -878 448 -1300 211 -418
423 -732 738 -1094 126 -145 326 -342 495 -487 217 -187 382 -308 656 -481
343 -218 903 -464 1289 -568 33 -9 65 -17 70 -19 6 -1 29 -8 52 -15 115 -32
473 -102 598 -116 28 -3 68 -8 90 -10 168 -21 331 -29 580 -29 225 0 398 6
510 19 70 8 128 15 185 21 66 6 328 54 458 84 377 84 798 236 1167 422 106 54
325 176 391 218 13 8 51 33 86 55 119 74 426 300 493 362 11 10 56 49 100 87
94 80 227 209 340 328 113 119 139 148 283 323 254 307 534 774 707 1180 112
263 242 654 270 816 3 18 8 35 10 39 5 8 44 191 51 240 3 19 9 58 14 85 6 28
12 68 15 90 46 368 49 422 49 745 0 326 -15 546 -54 775 -6 33 -13 78 -16 100
-3 22 -19 103 -35 180 -143 682 -448 1374 -851 1928 -75 103 -218 287 -243
313 -5 6 -32 37 -60 69 -167 198 -420 440 -644 619 -47 37 -95 76 -106 85 -34
28 -261 188 -310 217 -25 16 -65 41 -88 56 -148 95 -588 328 -620 328 -7 0
-17 4 -23 9 -14 15 -262 114 -414 166 -212 72 -580 169 -725 189 -22 4 -62 11
-90 16 -56 11 -257 36 -355 45 -36 4 -83 9 -105 11 -67 9 -634 11 -725 3z"/>
</g>
</svg>
